<!DOCTYPE svg PUBLIC "-//W3C//DTD SVG 1.1//EN" "http://www.w3.org/Graphics/SVG/1.1/DTD/svg11.dtd">
<!-- Uploaded to: SVG Repo, www.svgrepo.com, Transformed by: SVG Repo Mixer Tools -->
<svg fill="#000000" width="64px" height="64px" viewBox="0 0 24 24" xmlns="http://www.w3.org/2000/svg">
<g id="SVGRepo_bgCarrier" stroke-width="0"/>
<g id="SVGRepo_tracerCarrier" stroke-linecap="round" stroke-linejoin="round"/>
<g id="SVGRepo_iconCarrier">
<path d="M21,3H4A2,2,0,0,0,2,5V19a2,2,0,0,0,2,2H20a2,2,0,0,0,2-2V8a1,1,0,0,0-1-1H5A1,1,0,0,1,5,5H22V4A1,1,0,0,0,21,3Zm-2.5,9.5A1.5,1.5,0,1,1,17,14,1.5,1.5,0,0,1,18.5,12.5Z"/>
</g>
</svg>