<!DOCTYPE svg PUBLIC "-//W3C//DTD SVG 1.1//EN" "http://www.w3.org/Graphics/SVG/1.1/DTD/svg11.dtd">
<!-- Uploaded to: SVG Repo, www.svgrepo.com, Transformed by: SVG Repo Mixer Tools -->
<svg fill="#000000" width="64px" height="64px" viewBox="0 0 24 24" xmlns="http://www.w3.org/2000/svg">
<g id="SVGRepo_bgCarrier" stroke-width="0"/>
<g id="SVGRepo_tracerCarrier" stroke-linecap="round" stroke-linejoin="round" stroke="#CCCCCC" stroke-width="0.048"/>
<g id="SVGRepo_iconCarrier">
<path d="M7,4.142V2A1,1,0,0,0,5,2V4.142a4,4,0,1,0,2,0ZM6,10A2,2,0,1,1,8,8,2,2,0,0,1,6,10ZM6,23a1,1,0,0,1-1-1V15a1,1,0,0,1,2,0v7A1,1,0,0,1,6,23ZM18,1a1,1,0,0,0-1,1V8.142a4,4,0,1,0,2,0V2A1,1,0,0,0,18,1Zm2,11a2,2,0,1,1-2-2A2,2,0,0,1,20,12Zm-2,6a1,1,0,0,1,1,1v3a1,1,0,0,1-2,0V19A1,1,0,0,1,18,18Z"/>
</g>
</svg>