<!DOCTYPE svg PUBLIC "-//W3C//DTD SVG 1.1//EN" "http://www.w3.org/Graphics/SVG/1.1/DTD/svg11.dtd">
<!-- Uploaded to: SVG Repo, www.svgrepo.com, Transformed by: SVG Repo Mixer Tools -->
<svg fill="#FFD700" height="64px" width="64px" version="1.1" id="Layer_1" xmlns="http://www.w3.org/2000/svg" xmlns:xlink="http://www.w3.org/1999/xlink" viewBox="0 0 491.52 491.52" xml:space="preserve" stroke="#FFD700">
<g id="SVGRepo_bgCarrier" stroke-width="0"/>
<g id="SVGRepo_tracerCarrier" stroke-linecap="round" stroke-linejoin="round"/>
<g id="SVGRepo_iconCarrier"> <g> <g> <path d="M245.758,52.61c-106.502,0-193.15,86.648-193.15,193.154c0,106.499,86.647,193.146,193.15,193.146 c106.502,0,193.15-86.647,193.15-193.146C438.907,139.258,352.259,52.61,245.758,52.61z M307.145,329.953 c-12.319,10.913-28.604,16.88-48.868,17.875v21.463h-19.074v-21.754c-27.223-2.789-51.658-13.607-73.315-32.498l21.754-25.925 c16.697,14.502,33.88,23.161,51.56,25.925v-57.817c-22.458-5.36-38.889-12.394-49.317-21.148 c-10.428-8.731-15.655-21.707-15.655-38.901c0-17.171,6.015-31.237,18.031-42.15c12.017-10.937,27.673-16.904,46.941-17.898 v-14.89h19.074v15.206c21.851,1.576,42.514,9.045,61.988,22.336l-19.378,27.428c-13.107-9.337-27.319-15.107-42.61-17.291v56.022 h0.898c22.845,5.361,39.627,12.636,50.359,21.756c10.731,9.142,16.091,22.408,16.091,39.796 C325.626,304.876,319.466,319.015,307.145,329.953z"/> </g> </g> <g> <g> <path d="M218.19,176.922c-5.057,4.462-7.592,10.04-7.592,16.686c0,6.669,1.976,11.907,5.954,15.788 c3.978,3.88,11.52,7.615,22.652,11.181v-51.56C230.266,169.816,223.258,172.461,218.19,176.922z"/> </g> </g> <g> <g> <path d="M282.711,273.761c-4.365-4.05-12.514-7.882-24.433-11.472v53.646c9.531-0.995,17.086-3.759,22.652-8.343 c5.553-4.56,8.342-10.332,8.342-17.292C289.272,283.364,287.077,277.836,282.711,273.761z"/> </g> </g> <g> <g> <path d="M245.76,0C110.031,0,0,110.031,0,245.76s110.031,245.76,245.76,245.76s245.76-110.031,245.76-245.76S381.489,0,245.76,0z M245.758,454.764c-115.247,0-209.006-93.754-209.006-209.001c0-115.246,93.759-209.009,209.006-209.009 c115.246,0,209.005,93.763,209.005,209.009C454.763,361.01,361.004,454.764,245.758,454.764z"/> </g> </g> </g>
</svg>